<svg width="86.000000" height="86.000000" viewBox="0 0 86 86" fill="none" xmlns="http://www.w3.org/2000/svg" xmlns:xlink="http://www.w3.org/1999/xlink">
	<desc>
			Created with Pixso.
	</desc>
	<defs/>
	<path id="Vector" d="M-0.46 85.76L85.75 85.76L85.75 -0.24L-0.46 85.76ZM75.04 73.74L83.07 73.74L83.07 83.09L6 83.09L83.07 6.21L83.07 28.35L75.04 28.35L75.04 31.02L83.07 31.02L83.07 39.03L77.72 39.03L77.72 41.7L83.07 41.7L83.07 49.71L75.04 49.71L75.04 52.38L83.07 52.38L83.07 60.39L77.72 60.39L77.72 63.06L83.07 63.06L83.07 71.07L75.04 71.07L75.04 73.74ZM68.35 73.74L68.35 37.14L31.66 73.74L68.35 73.74ZM38.12 71.07L65.67 43.59L65.67 71.07L38.12 71.07Z" fill="#333333" fill-opacity="1.000000" fill-rule="evenodd"/>
	<path id="Vector" d="M-0.41 62.23L2.9 49.03L52.29 -0.24L62.21 9.66L12.82 58.93L-0.41 62.23ZM3.27 58.56L11.45 56.52L50.4 17.67L44.26 11.55L5.31 50.39L3.27 58.56ZM52.29 3.54L46.15 9.66L52.29 15.78L58.43 9.66L52.29 3.54Z" fill="#FBD846" fill-opacity="1.000000" fill-rule="nonzero"/>
</svg>
