<svg width="79.000000" height="77.000000" viewBox="0 0 79 77" fill="none" xmlns="http://www.w3.org/2000/svg" xmlns:xlink="http://www.w3.org/1999/xlink">
	<desc>
			Created with Pixso.
	</desc>
	<defs/>
	<path id="Vector" d="M77.06 73.68C69.05 73.68 61.02 73.68 53.01 73.68C39.71 73.68 26.41 73.68 13.11 73.68C9.26 73.68 5.44 73.68 1.6 73.68C2.13 74.1 2.66 74.52 3.2 74.94C3.2 69.57 3.2 64.2 3.2 58.82C3.2 48.07 3.2 37.32 3.2 26.57C3.2 18.53 3.2 10.48 3.2 2.45C3.2 1.76 3.2 1.09 3.2 0.4C2.66 0.82 2.13 1.24 1.6 1.66C9.6 1.66 17.63 1.66 25.64 1.66C38.94 1.66 52.25 1.66 65.55 1.66C69.39 1.66 73.22 1.66 77.06 1.66C76.52 1.24 75.99 0.82 75.46 0.4C75.46 5.78 75.46 11.15 75.46 16.53C75.46 27.28 75.46 38.03 75.46 48.78C75.46 56.82 75.46 64.87 75.46 72.9C75.46 73.58 75.46 74.26 75.46 74.94C75.46 76.57 78.66 76.57 78.66 74.94C78.66 69.57 78.66 64.2 78.66 58.82C78.66 48.07 78.66 37.32 78.66 26.57C78.66 18.53 78.66 10.48 78.66 2.45C78.66 1.76 78.66 1.09 78.66 0.4C78.66 -0.28 77.93 -0.86 77.06 -0.86C69.05 -0.86 61.02 -0.86 53.01 -0.86C39.71 -0.86 26.41 -0.86 13.11 -0.86C9.26 -0.86 5.44 -0.86 1.6 -0.86C0.72 -0.86 0 -0.28 0 0.4C0 5.78 0 11.15 0 16.53C0 27.28 0 38.03 0 48.78C0 56.82 0 64.87 0 72.9C0 73.58 0 74.26 0 74.94C0 75.63 0.72 76.2 1.6 76.2C9.6 76.2 17.63 76.2 25.64 76.2C38.94 76.2 52.25 76.2 65.55 76.2C69.39 76.2 73.22 76.2 77.06 76.2C79.13 76.2 79.13 73.68 77.06 73.68Z" fill="#333333" fill-opacity="1.000000" fill-rule="nonzero"/>
	<path id="Vector" d="M37.89 0.37C37.89 5.78 37.89 11.19 37.89 16.6C37.89 27.42 37.89 38.23 37.89 49.05C37.89 57.15 37.89 65.24 37.89 73.32C37.89 74.01 37.89 74.69 37.89 75.38C37.89 77.02 41.1 77.02 41.1 75.38C41.1 69.97 41.1 64.56 41.1 59.16C41.1 48.34 41.1 37.52 41.1 26.71C41.1 18.61 41.1 10.51 41.1 2.44C41.1 1.74 41.1 1.07 41.1 0.37C41.1 -1.27 37.89 -1.27 37.89 0.37Z" fill="#FBD846" fill-opacity="1.000000" fill-rule="nonzero"/>
	<path id="Vector" d="M1.6 2.25C9.65 2.25 17.71 2.25 25.75 2.25C39.11 2.25 52.47 2.25 65.83 2.25C69.69 2.25 73.53 2.25 77.39 2.25C79.47 2.25 79.47 -0.97 77.39 -0.97C69.35 -0.97 61.28 -0.97 53.24 -0.97C39.88 -0.97 26.52 -0.97 13.16 -0.97C9.3 -0.97 5.46 -0.97 1.6 -0.97C-0.48 -0.97 -0.48 2.25 1.6 2.25Z" fill="#333333" fill-opacity="1.000000" fill-rule="nonzero"/>
	<path id="Vector" d="M77.39 73.44C69.34 73.44 61.28 73.44 53.24 73.44C39.88 73.44 26.52 73.44 13.16 73.44C9.3 73.44 5.46 73.44 1.6 73.44C2.14 73.98 2.67 74.52 3.21 75.05C3.21 66.88 3.21 58.73 3.21 50.56C3.21 37.31 3.21 24.06 3.21 10.8C3.21 7.42 3.21 4.03 3.21 0.62C2.67 1.16 2.14 1.69 1.6 2.23C9.65 2.23 17.71 2.23 25.75 2.23C39.11 2.23 52.47 2.23 65.83 2.23C69.69 2.23 73.53 2.23 77.39 2.23C76.85 1.69 76.32 1.16 75.78 0.62C75.78 8.79 75.78 16.94 75.78 25.11C75.78 38.36 75.78 51.61 75.78 64.87C75.78 68.25 75.78 71.64 75.78 75.05C75.78 77.13 79 77.13 79 75.05C79 66.88 79 58.73 79 50.56C79 37.31 79 24.06 79 10.8C79 7.42 79 4.03 79 0.62C79 -0.26 78.27 -0.99 77.39 -0.99C69.34 -0.99 61.28 -0.99 53.24 -0.99C39.88 -0.99 26.52 -0.99 13.16 -0.99C9.3 -0.99 5.46 -0.99 1.6 -0.99C0.72 -0.99 0 -0.26 0 0.62C0 8.79 0 16.94 0 25.11C0 38.36 0 51.61 0 64.87C0 68.25 0 71.64 0 75.05C0 75.93 0.72 76.66 1.6 76.66C9.65 76.66 17.71 76.66 25.75 76.66C39.11 76.66 52.47 76.66 65.83 76.66C69.69 76.66 73.53 76.66 77.39 76.66C79.47 76.66 79.47 73.44 77.39 73.44Z" fill="#333333" fill-opacity="1.000000" fill-rule="nonzero"/>
	<path id="Vector" d="M43.55 34.41C43.55 36.71 43.55 38.98 43.55 41.28C43.55 43.36 46.76 43.36 46.76 41.28C46.76 38.98 46.76 36.71 46.76 34.41C46.76 32.36 43.55 32.36 43.55 34.41Z" fill="#FBD846" fill-opacity="1.000000" fill-rule="nonzero"/>
	<path id="Vector" d="M32.23 34.41C32.23 36.71 32.23 38.98 32.23 41.28C32.23 43.36 35.44 43.36 35.44 41.28C35.44 38.98 35.44 36.71 35.44 34.41C35.44 32.36 32.23 32.36 32.23 34.41Z" fill="#FBD846" fill-opacity="1.000000" fill-rule="nonzero"/>
</svg>
