<svg width="71.000000" height="78.970703" viewBox="0 0 71 78.9707" fill="none" xmlns="http://www.w3.org/2000/svg" xmlns:xlink="http://www.w3.org/1999/xlink">
	<desc>
			Created with Pixso.
	</desc>
	<defs/>
	<path id="Shape" d="M66.56 40.78L66.56 74.18C66.56 75.75 65.34 76.97 63.75 76.97L7.35 76.97C5.77 76.97 4.55 75.75 4.55 74.18L4.55 40.78" stroke="#FFFFFF" stroke-opacity="1.000000" stroke-width="4.000000"/>
	<path id="Shape" d="M66.19 40.66L4.8 40.66C3.21 40.66 2 39.45 2 37.88L2 25.41C2 23.84 3.21 22.63 4.8 22.63L66.19 22.63C67.78 22.63 69 23.84 69 25.41L69 37.88C69 39.45 67.78 40.66 66.19 40.66Z" stroke="#FFFFFF" stroke-opacity="1.000000" stroke-width="4.000000"/>
	<path id="Shape" d="M35.86 21.54C33.18 18.88 40.97 6.65 43.65 3.99C46.33 1.33 50.72 1.33 53.52 3.99C56.2 6.65 56.2 11.13 53.52 13.79C50.84 16.46 38.66 24.2 35.86 21.54Z" stroke="#FBD846" stroke-opacity="1.000000" stroke-width="4.000000"/>
	<path id="Shape" d="M35.01 21.66C37.69 19 29.9 6.77 27.09 4.11C24.41 1.45 20.03 1.45 17.35 4.11C14.67 6.65 14.67 11.01 17.35 13.79C20.03 16.46 32.33 24.32 35.01 21.66Z" stroke="#FBD846" stroke-opacity="1.000000" stroke-width="4.000000"/>
	<path id="Shape" d="M27.09 32.43C27.09 32.43 28.92 26.86 35.99 24.08L35.99 76.84" stroke="#FBD846" stroke-opacity="1.000000" stroke-width="4.000000"/>
	<path id="Shape" d="M35.49 24.2C35.49 24.2 38.29 33.88 48.04 35.33" stroke="#FBD846" stroke-opacity="1.000000" stroke-width="4.000000"/>
</svg>
