<svg width="26.000000" height="26.000000" viewBox="0 0 26 26" fill="none" xmlns="http://www.w3.org/2000/svg" xmlns:xlink="http://www.w3.org/1999/xlink">
	<desc>
			Created with Pixso.
	</desc>
	<defs/>
	<path id="Vector" d="M11.32 21.55L14.61 18.26L20.04 22.05L18.82 23.27C18.01 24.08 16.82 24.38 15.72 24.05C12.35 23.05 9.33 21.21 6.65 18.53C3.97 15.85 2.13 12.82 1.13 9.46C0.8 8.36 1.1 7.17 1.91 6.36L3.13 5.14L6.92 10.57L3.63 13.86M11.05 9.18C13.71 8.88 15.99 11.07 15.8 13.75L15.76 14.37M11.05 5.45C15.86 4.91 19.98 8.87 19.64 13.7L19.57 14.82M11.05 1.07C18.35 0.25 24.6 6.26 24.09 13.58L23.97 15.29" stroke="#FFFFFF" stroke-opacity="1.000000" stroke-width="2.000000"/>
</svg>
