<svg width="91.000000" height="92.000000" viewBox="0 0 91 92" fill="none" xmlns="http://www.w3.org/2000/svg" xmlns:xlink="http://www.w3.org/1999/xlink">
	<desc>
			Created with Pixso.
	</desc>
	<defs/>
	<path id="Vector" d="M59.14 33.68L28.94 57.68C28.34 58.18 28.14 59.18 28.74 59.78C29.04 60.18 29.44 60.38 29.94 60.38C30.24 60.38 30.64 60.28 30.84 60.08L61.04 36.08C61.64 35.58 61.84 34.58 61.24 33.98C60.74 33.28 59.84 33.18 59.14 33.68Z" fill="#333333" fill-opacity="1.000000" fill-rule="nonzero"/>
	<path id="Vector" d="M37.05 44.38C37.44 44.38 37.84 44.38 38.25 44.28C42.34 43.68 45.25 39.78 44.55 35.58C44.25 33.58 43.15 31.78 41.55 30.58C39.94 29.38 37.94 28.88 35.94 29.18C33.94 29.48 32.15 30.58 30.94 32.18C29.75 33.78 29.25 35.78 29.55 37.78C30.15 41.68 33.44 44.38 37.05 44.38ZM36.34 32.28C36.55 32.28 36.84 32.18 37.05 32.18C39.25 32.18 41.25 33.78 41.55 36.08C41.94 38.58 40.25 40.88 37.75 41.28C35.25 41.68 32.94 39.98 32.55 37.48C32.15 34.98 33.94 32.68 36.34 32.28Z" fill="#333333" fill-opacity="1.000000" fill-rule="nonzero"/>
	<path id="Vector" d="M53.04 49.38C48.84 49.38 45.44 52.78 45.44 56.98C45.44 61.18 48.84 64.58 53.04 64.58C57.25 64.58 60.64 61.18 60.64 56.98C60.54 52.78 57.14 49.38 53.04 49.38ZM53.04 61.48C50.54 61.48 48.44 59.38 48.44 56.88C48.44 54.38 50.54 52.28 53.04 52.28C55.54 52.28 57.64 54.38 57.64 56.88C57.54 59.48 55.54 61.48 53.04 61.48Z" fill="#333333" fill-opacity="1.000000" fill-rule="nonzero"/>
	<path id="Vector" d="M90.44 45.88C90.44 45.78 90.54 45.58 90.54 45.48C90.54 41.18 86.04 38.98 82.14 37.08C79.34 35.68 76.34 34.18 75.54 32.38C74.75 30.48 75.84 27.38 76.94 24.48C78.44 20.38 79.94 16.18 77.14 13.38C74.34 10.58 70.34 11.58 66.34 12.48C63.54 13.08 60.64 13.78 58.75 12.98C56.84 12.18 55.25 9.68 53.75 7.28C51.54 3.88 49.14 -0.02 44.94 -0.02C40.75 -0.02 38.34 3.88 36.25 7.38C34.75 9.88 33.25 12.38 31.34 13.18C29.44 13.98 26.44 13.28 23.64 12.58C19.64 11.58 15.54 10.58 12.84 13.28C10.04 16.08 11.44 20.28 12.75 24.38C13.75 27.38 14.64 30.38 13.84 32.38C13.04 34.28 10.25 35.68 7.54 37.08C3.75 39.08 -0.56 41.28 -0.56 45.48C-0.56 45.58 -0.56 45.78 -0.46 45.88C-0.46 45.98 -0.56 46.18 -0.56 46.28C-0.56 50.48 3.75 52.78 7.54 54.68C10.25 56.08 13.04 57.48 13.84 59.38C14.64 61.28 13.64 64.38 12.75 67.38C11.44 71.48 10.04 75.68 12.84 78.48C15.64 81.28 19.75 80.18 23.64 79.18C26.44 78.48 29.44 77.78 31.34 78.58C33.25 79.38 34.75 81.88 36.25 84.38C38.34 87.88 40.75 91.78 44.94 91.78C49.14 91.78 51.64 87.88 53.75 84.48C55.25 82.08 56.84 79.58 58.75 78.78C60.75 77.98 63.54 78.58 66.34 79.28C70.25 80.18 74.34 81.18 77.14 78.38C79.94 75.58 78.44 71.38 76.94 67.28C75.84 64.28 74.75 61.28 75.54 59.38C76.34 57.48 79.25 56.08 82.14 54.68C86.04 52.68 90.54 50.48 90.54 46.28C90.54 46.08 90.44 45.98 90.44 45.88ZM80.75 51.98C77.44 53.68 73.94 55.38 72.75 58.28C71.44 61.28 72.84 64.88 74.04 68.38C75.25 71.68 76.44 74.88 74.94 76.28C73.34 77.88 70.25 77.18 66.94 76.38C63.64 75.58 60.34 74.88 57.44 76.08C54.64 77.28 52.84 80.08 51.14 82.88C49.25 85.88 47.44 88.78 44.84 88.78C42.34 88.78 40.54 85.88 38.64 82.78C36.94 79.88 35.14 76.98 32.34 75.78C29.44 74.58 26.04 75.38 22.75 76.28C19.44 77.08 16.34 77.88 14.75 76.38C13.25 74.88 14.25 71.68 15.34 68.38C16.44 64.88 17.64 61.28 16.34 58.38C15.14 55.48 11.84 53.78 8.64 52.18C5.34 50.48 2.25 48.88 2.25 46.38C2.25 46.28 2.25 46.08 2.14 45.98C2.14 45.88 2.25 45.68 2.25 45.58C2.25 43.18 5.34 41.58 8.64 39.78C11.84 38.18 15.14 36.48 16.34 33.58C17.54 30.58 16.44 26.98 15.34 23.58C14.25 20.18 13.25 16.98 14.75 15.58C16.34 13.98 19.44 14.78 22.75 15.68C26.04 16.48 29.44 17.38 32.34 16.18C35.14 14.98 36.94 12.08 38.64 9.18C40.54 6.08 42.25 3.18 44.84 3.18C47.44 3.18 49.25 6.08 51.14 9.08C52.94 11.88 54.75 14.68 57.44 15.88C60.34 17.08 63.64 16.28 66.94 15.58C70.25 14.78 73.34 14.08 74.94 15.68C76.44 17.08 75.25 20.28 74.04 23.58C72.75 27.08 71.44 30.68 72.75 33.68C73.94 36.58 77.44 38.28 80.75 39.98C84.25 41.68 87.44 43.38 87.44 45.78C87.44 45.88 87.44 46.08 87.54 46.18C87.54 46.28 87.44 46.48 87.44 46.58C87.54 48.58 84.25 50.28 80.75 51.98Z" fill="#FBD846" fill-opacity="1.000000" fill-rule="nonzero"/>
</svg>
