<svg width="15.000000" height="29.011719" viewBox="0 0 15 29.0117" fill="none" xmlns="http://www.w3.org/2000/svg" xmlns:xlink="http://www.w3.org/1999/xlink">
	<desc>
			Created with Pixso.
	</desc>
	<defs/>
	<path id="Vector" d="M3.33 5.51L3.33 22.33C3.33 22.33 3.02 25.87 7.56 25.87C11.66 25.87 11.66 22.33 11.66 22.33L11.66 4.64C11.66 4.64 11.66 0 5.83 0C0 0 0 4.64 0 4.64L0 22.33C0 22.33 0 29.01 7.5 29.01C15 29.01 15 22.33 15 22.33L15 4.64C15 3.91 13.33 3.91 13.33 4.64L13.33 22.33C13.33 22.33 13.93 27.69 7.5 27.69C1.66 27.69 1.66 22.33 1.66 22.33L1.66 4.64C1.66 4.64 1.66 1.31 5.83 1.31C10 1.31 10 4.64 10 4.64L10 22.33C10 22.33 10 24.41 7.56 24.41C5.13 24.41 5 22.33 5 22.33L5 5.51C5 4.78 3.33 4.78 3.33 5.51Z" fill="#FFFFFF" fill-opacity="1.000000" fill-rule="nonzero"/>
</svg>
