<svg width="32.000000" height="30.000000" viewBox="0 0 32 30" fill="none" xmlns="http://www.w3.org/2000/svg" xmlns:xlink="http://www.w3.org/1999/xlink">
	<desc>
			Created with Pixso.
	</desc>
	<defs/>
	<path id="Vector" d="M30.86 28.49C27.66 28.49 24.44 28.49 21.23 28.49C15.91 28.49 10.58 28.49 5.25 28.49C3.71 28.49 2.18 28.49 0.64 28.49C0.85 28.65 1.06 28.82 1.28 28.98C1.28 26.9 1.28 24.82 1.28 22.74C1.28 18.58 1.28 14.42 1.28 10.26C1.28 7.15 1.28 4.04 1.28 0.93C1.28 0.66 1.28 0.41 1.28 0.14C1.06 0.3 0.85 0.46 0.64 0.63C3.84 0.63 7.06 0.63 10.27 0.63C15.6 0.63 20.92 0.63 26.25 0.63C27.79 0.63 29.33 0.63 30.86 0.63C30.65 0.46 30.44 0.3 30.22 0.14C30.22 2.22 30.22 4.3 30.22 6.38C30.22 10.54 30.22 14.7 30.22 18.85C30.22 21.97 30.22 25.08 30.22 28.19C30.22 28.45 30.22 28.71 30.22 28.98C30.22 29.61 31.5 29.61 31.5 28.98C31.5 26.9 31.5 24.82 31.5 22.74C31.5 18.58 31.5 14.42 31.5 10.26C31.5 7.15 31.5 4.04 31.5 0.93C31.5 0.66 31.5 0.41 31.5 0.14C31.5 -0.13 31.21 -0.35 30.86 -0.35C27.66 -0.35 24.44 -0.35 21.23 -0.35C15.91 -0.35 10.58 -0.35 5.25 -0.35C3.71 -0.35 2.18 -0.35 0.64 -0.35C0.29 -0.35 0 -0.13 0 0.14C0 2.22 0 4.3 0 6.38C0 10.54 0 14.7 0 18.85C0 21.97 0 25.08 0 28.19C0 28.45 0 28.71 0 28.98C0 29.25 0.29 29.47 0.64 29.47C3.84 29.47 7.06 29.47 10.27 29.47C15.6 29.47 20.92 29.47 26.25 29.47C27.79 29.47 29.33 29.47 30.86 29.47C31.69 29.47 31.69 28.49 30.86 28.49Z" fill="#333333" fill-opacity="1.000000" fill-rule="nonzero"/>
	<path id="Vector" d="M15.17 0.13C15.17 2.22 15.17 4.31 15.17 6.4C15.17 10.59 15.17 14.78 15.17 18.96C15.17 22.09 15.17 25.22 15.17 28.35C15.17 28.62 15.17 28.88 15.17 29.15C15.17 29.78 16.46 29.78 16.46 29.15C16.46 27.06 16.46 24.96 16.46 22.87C16.46 18.69 16.46 14.5 16.46 10.32C16.46 7.18 16.46 4.05 16.46 0.92C16.46 0.66 16.46 0.4 16.46 0.13C16.46 -0.51 15.17 -0.51 15.17 0.13Z" fill="#FBD846" fill-opacity="1.000000" fill-rule="nonzero"/>
	<path id="Vector" d="M0.64 0.85C3.86 0.85 7.09 0.85 10.31 0.85C15.66 0.85 21.01 0.85 26.37 0.85C27.91 0.85 29.45 0.85 31 0.85C31.83 0.85 31.83 -0.39 31 -0.39C27.77 -0.39 24.54 -0.39 21.32 -0.39C15.97 -0.39 10.62 -0.39 5.27 -0.39C3.72 -0.39 2.19 -0.39 0.64 -0.39C-0.19 -0.39 -0.19 0.85 0.64 0.85Z" fill="#333333" fill-opacity="1.000000" fill-rule="nonzero"/>
	<path id="Vector" d="M31 28.4C27.77 28.4 24.54 28.4 21.32 28.4C15.97 28.4 10.62 28.4 5.27 28.4C3.72 28.4 2.18 28.4 0.64 28.4C0.85 28.61 1.07 28.81 1.28 29.02C1.28 25.86 1.28 22.71 1.28 19.54C1.28 14.42 1.28 9.29 1.28 4.16C1.28 2.85 1.28 1.54 1.28 0.22C1.07 0.43 0.85 0.64 0.64 0.84C3.86 0.84 7.09 0.84 10.31 0.84C15.66 0.84 21.01 0.84 26.37 0.84C27.91 0.84 29.45 0.84 31 0.84C30.78 0.64 30.57 0.43 30.35 0.22C30.35 3.38 30.35 6.54 30.35 9.7C30.35 14.82 30.35 19.95 30.35 25.08C30.35 26.39 30.35 27.7 30.35 29.02C30.35 29.83 31.64 29.83 31.64 29.02C31.64 25.86 31.64 22.71 31.64 19.54C31.64 14.42 31.64 9.29 31.64 4.16C31.64 2.85 31.64 1.54 31.64 0.22C31.64 -0.12 31.35 -0.4 31 -0.4C27.77 -0.4 24.54 -0.4 21.32 -0.4C15.97 -0.4 10.62 -0.4 5.27 -0.4C3.72 -0.4 2.18 -0.4 0.64 -0.4C0.29 -0.4 0 -0.12 0 0.22C0 3.38 0 6.54 0 9.7C0 14.82 0 19.95 0 25.08C0 26.39 0 27.7 0 29.02C0 29.36 0.29 29.64 0.64 29.64C3.86 29.64 7.09 29.64 10.31 29.64C15.66 29.64 21.01 29.64 26.37 29.64C27.91 29.64 29.45 29.64 31 29.64C31.83 29.64 31.83 28.4 31 28.4Z" fill="#333333" fill-opacity="1.000000" fill-rule="nonzero"/>
	<path id="Vector" d="M17.44 13.3C17.44 14.19 17.44 15.06 17.44 15.95C17.44 16.76 18.73 16.76 18.73 15.95C18.73 15.06 18.73 14.19 18.73 13.3C18.73 12.5 17.44 12.5 17.44 13.3Z" fill="#FBD846" fill-opacity="1.000000" fill-rule="nonzero"/>
	<path id="Vector" d="M12.91 13.3C12.91 14.19 12.91 15.06 12.91 15.95C12.91 16.76 14.19 16.76 14.19 15.95C14.19 15.06 14.19 14.19 14.19 13.3C14.19 12.5 12.91 12.5 12.91 13.3Z" fill="#FBD846" fill-opacity="1.000000" fill-rule="nonzero"/>
</svg>
