<svg width="27.000000" height="32.000000" viewBox="0 0 27 32" fill="none" xmlns="http://www.w3.org/2000/svg" xmlns:xlink="http://www.w3.org/1999/xlink">
	<desc>
			Created with Pixso.
	</desc>
	<defs/>
	<path id="Shape" d="M24.54 15.86L24.54 29.32C24.54 29.96 24.09 30.45 23.51 30.45L2.62 30.45C2.04 30.45 1.58 29.96 1.58 29.32L1.58 15.86" stroke="#333333" stroke-opacity="1.000000" stroke-width="1.500000"/>
	<path id="Shape" d="M24.41 15.81L1.67 15.81C1.09 15.81 0.64 15.32 0.64 14.68L0.64 9.66C0.64 9.02 1.09 8.54 1.67 8.54L24.41 8.54C25 8.54 25.45 9.02 25.45 9.66L25.45 14.68C25.45 15.32 25 15.81 24.41 15.81Z" stroke="#333333" stroke-opacity="1.000000" stroke-width="1.500000"/>
	<path id="Shape" d="M13.18 8.1C12.19 7.02 15.07 2.1 16.07 1.02C17.06 -0.05 18.68 -0.05 19.72 1.02C20.71 2.1 20.71 3.9 19.72 4.97C18.73 6.05 14.22 9.17 13.18 8.1Z" stroke="#FBD846" stroke-opacity="1.000000" stroke-width="1.500000"/>
	<path id="Shape" d="M12.86 8.15C13.85 7.07 10.97 2.14 9.93 1.07C8.94 0 7.31 0 6.32 1.07C5.33 2.09 5.33 3.85 6.32 4.97C7.31 6.05 11.87 9.22 12.86 8.15Z" stroke="#FBD846" stroke-opacity="1.000000" stroke-width="1.500000"/>
	<path id="Shape" d="M9.93 12.49C9.93 12.49 10.61 10.24 13.22 9.12L13.22 30.4" stroke="#FBD846" stroke-opacity="1.000000" stroke-width="1.500000"/>
	<path id="Shape" d="M13.04 9.17C13.04 9.17 14.08 13.07 17.69 13.66" stroke="#FBD846" stroke-opacity="1.000000" stroke-width="1.500000"/>
</svg>
