<svg width="21.623047" height="15.496094" viewBox="0 0 21.623 15.4961" fill="none" xmlns="http://www.w3.org/2000/svg" xmlns:xlink="http://www.w3.org/1999/xlink">
	<desc>
			Created with Pixso.
	</desc>
	<defs/>
	<path id="Vector" d="M0 0L0 0.82L0 14.66L0 15.49L21.62 15.49L21.62 14.66L21.62 0.82L21.62 0L0 0ZM13.19 7.95L11.23 9.92C10.99 10.14 10.62 10.14 10.39 9.93L8.42 7.95L8.44 7.93L1.31 0.72L20.31 0.72L13.18 7.93L13.19 7.95ZM7.39 7.93L0.72 14.36L0.72 1.23L7.39 7.93ZM7.9 8.45L9.89 10.45C10.15 10.68 10.47 10.8 10.8 10.8C11.14 10.8 11.47 10.68 11.73 10.44L13.71 8.45L20.29 14.77L1.32 14.77L7.9 8.45ZM14.22 7.93L20.9 1.23L20.9 14.36L14.22 7.93Z" fill="#99CB38" fill-opacity="1.000000" fill-rule="nonzero"/>
</svg>
