<svg width="22.000000" height="16.000000" viewBox="0 0 22 16" fill="none" xmlns="http://www.w3.org/2000/svg" xmlns:xlink="http://www.w3.org/1999/xlink">
	<desc>
			Created with Pixso.
	</desc>
	<defs/>
	<path id="Vector" d="M0 -0.36L0 0.47L0 14.31L0 15.14L21.62 15.14L21.62 14.31L21.62 0.47L21.62 -0.36L0 -0.36ZM13.19 7.59L11.23 9.56C10.99 9.78 10.62 9.78 10.39 9.57L8.42 7.59L8.44 7.57L1.31 0.36L20.31 0.36L13.18 7.58L13.19 7.59ZM7.39 7.58L0.72 14L0.72 0.87L7.39 7.58ZM7.9 8.09L9.89 10.09C10.15 10.33 10.47 10.45 10.8 10.45C11.14 10.45 11.47 10.33 11.73 10.08L13.71 8.09L20.29 14.41L1.32 14.41L7.9 8.09ZM14.22 7.58L20.9 0.87L20.9 14L14.22 7.58Z" fill="#99CB38" fill-opacity="1.000000" fill-rule="nonzero"/>
</svg>
