<svg width="14.000000" height="10.000000" viewBox="0 0 14 10" fill="none" xmlns="http://www.w3.org/2000/svg" xmlns:xlink="http://www.w3.org/1999/xlink">
	<desc>
			Created with Pixso.
	</desc>
	<defs/>
	<path id="Vector" d="M12.25 0L1.75 0C0.78 0 0 0.74 0 1.66L0 8.33C0 9.25 0.78 10 1.75 10L12.25 10C13.21 10 14 9.25 14 8.33L14 1.66C14 0.74 13.21 0 12.25 0ZM9.36 4.44L13.07 1.42C13.09 1.5 13.12 1.58 13.12 1.66L13.12 8.33C13.12 8.39 13.1 8.44 13.08 8.49L9.36 4.44ZM12.25 0.83C12.3 0.83 12.35 0.85 12.41 0.86L7 5.28L1.58 0.86C1.64 0.85 1.69 0.83 1.75 0.83L12.25 0.83ZM0.91 8.49C0.89 8.44 0.87 8.39 0.87 8.33L0.87 1.66C0.87 1.58 0.9 1.5 0.92 1.42L4.62 4.44L0.91 8.49ZM1.75 9.16C1.66 9.16 1.58 9.14 1.5 9.11L5.29 4.99L6.71 6.14C6.79 6.21 6.89 6.25 7 6.25C7.1 6.25 7.2 6.21 7.28 6.14L8.7 4.99L12.5 9.11C12.41 9.14 12.33 9.16 12.25 9.16L1.75 9.16Z" fill="#8E8E8E" fill-opacity="1.000000" fill-rule="evenodd"/>
</svg>
