<svg width="14.000000" height="16.099609" viewBox="0 0 14 16.0996" fill="none" xmlns="http://www.w3.org/2000/svg" xmlns:xlink="http://www.w3.org/1999/xlink">
	<desc>
			Created with Pixso.
	</desc>
	<defs/>
	<path id="Vector" d="M7 7C6.3 7 5.63 6.79 5.05 6.41C4.48 6.02 4.03 5.47 3.76 4.83C3.5 4.19 3.43 3.49 3.56 2.81C3.7 2.13 4.03 1.51 4.52 1.02C5.01 0.53 5.63 0.2 6.31 0.06C6.99 -0.07 7.69 0 8.33 0.26C8.97 0.53 9.52 0.98 9.91 1.55C10.29 2.13 10.5 2.8 10.5 3.5C10.5 4.42 10.13 5.31 9.47 5.97C8.81 6.63 7.92 7 7 7ZM7 1.4C6.58 1.4 6.17 1.52 5.83 1.75C5.48 1.98 5.21 2.31 5.06 2.69C4.9 3.08 4.85 3.5 4.93 3.91C5.02 4.31 5.22 4.69 5.51 4.98C5.8 5.27 6.18 5.47 6.58 5.56C6.99 5.64 7.41 5.59 7.8 5.43C8.18 5.28 8.51 5.01 8.74 4.66C8.97 4.32 9.09 3.91 9.09 3.5C9.09 2.94 8.87 2.4 8.48 2.01C8.09 1.62 7.55 1.4 7 1.4Z" fill="#8E8E8E" fill-opacity="1.000000" fill-rule="nonzero"/>
	<path id="Vector" d="M13.3 16.09L0.69 16.09C0.51 16.09 0.33 16.02 0.2 15.89C0.07 15.76 0 15.58 0 15.39L0 13.29C0 11.81 0.58 10.38 1.64 9.33C2.68 8.28 4.11 7.69 5.59 7.69L8.4 7.69C9.88 7.69 11.31 8.28 12.35 9.33C13.41 10.38 14 11.81 14 13.29L14 15.39C14 15.58 13.92 15.76 13.79 15.89C13.66 16.02 13.48 16.09 13.3 16.09ZM1.4 14.69L12.59 14.69L12.59 13.29C12.59 12.18 12.15 11.11 11.36 10.33C10.58 9.54 9.51 9.09 8.4 9.09L5.59 9.09C4.48 9.09 3.41 9.54 2.63 10.33C1.84 11.11 1.4 12.18 1.4 13.29L1.4 14.69Z" fill="#8E8E8E" fill-opacity="1.000000" fill-rule="nonzero"/>
</svg>
