<svg width="14.000000" height="14.000000" viewBox="0 0 14 14" fill="none" xmlns="http://www.w3.org/2000/svg" xmlns:xlink="http://www.w3.org/1999/xlink">
	<desc>
			Created with Pixso.
	</desc>
	<defs/>
	<path id="Vector" d="M12.64 12.8L11.71 13.73C11.55 13.89 11.06 14 11.05 14C8.11 14.02 5.28 12.87 3.2 10.79C1.12 8.7 -0.04 5.86 0 2.92C0 2.91 0.1 2.44 0.27 2.28L1.2 1.35C1.54 1.01 2.19 0.86 2.65 1.01L2.84 1.08C3.3 1.23 3.77 1.73 3.9 2.2L4.37 3.91C4.5 4.38 4.33 5.04 3.99 5.38L3.36 6C3.97 8.25 5.74 10.02 8 10.63L8.61 10.01C8.96 9.67 9.62 9.5 10.08 9.63L11.8 10.09C12.26 10.22 12.76 10.7 12.92 11.15L12.98 11.35C13.14 11.81 12.98 12.46 12.64 12.8ZM7.87 7L8.75 7C8.75 6.03 7.96 5.25 7 5.25L7 6.12C7.48 6.12 7.87 6.51 7.87 7ZM11.37 7C11.37 4.58 9.41 2.62 7 2.62L7 3.5C8.92 3.5 10.5 5.07 10.5 7L11.37 7ZM7 0L7 0.87C10.37 0.87 13.12 3.62 13.12 7L14 7C14 3.13 10.86 0 7 0Z" fill="#8E8E8E" fill-opacity="1.000000" fill-rule="nonzero"/>
</svg>
