<svg width="13.000000" height="22.000000" viewBox="0 0 13 22" fill="none" xmlns="http://www.w3.org/2000/svg" xmlns:xlink="http://www.w3.org/1999/xlink">
	<desc>
			Created with Pixso.
	</desc>
	<defs/>
	<path id="Vector" d="M6.37 3.11C7.66 3.11 8.72 4.17 8.72 5.46C8.72 6.76 7.66 7.81 6.37 7.81C5.07 7.81 4.02 6.76 4.02 5.46C4.02 4.17 5.07 3.11 6.37 3.11ZM6.37 11.14C9.5 11.14 12.04 8.59 12.04 5.46C12.04 2.33 9.5 -0.22 6.37 -0.22C3.24 -0.22 0.69 2.33 0.69 5.46C0.69 8.59 3.24 11.14 6.37 11.14ZM8.66 15.77C9.82 15.51 10.93 15.05 11.96 14.41C12.74 13.91 12.97 12.89 12.48 12.11C11.99 11.33 10.97 11.1 10.19 11.59C7.86 13.05 4.87 13.05 2.54 11.59C1.77 11.1 0.74 11.33 0.25 12.11C-0.24 12.89 0 13.91 0.77 14.41C1.8 15.05 2.91 15.51 4.07 15.77L0.9 18.94C0.25 19.59 0.25 20.65 0.9 21.3C1.22 21.62 1.65 21.78 2.07 21.78C2.5 21.78 2.92 21.62 3.25 21.3L6.37 18.18L9.49 21.3C10.14 21.95 11.19 21.95 11.84 21.3C12.49 20.65 12.49 19.59 11.84 18.94C11.84 18.94 8.66 15.77 8.66 15.77Z" fill="#99CB38" fill-opacity="1.000000" fill-rule="nonzero"/>
</svg>
