<svg width="31.000000" height="30.000000" viewBox="0 0 31 30" fill="none" xmlns="http://www.w3.org/2000/svg" xmlns:xlink="http://www.w3.org/1999/xlink">
	<desc>
			Created with Pixso.
	</desc>
	<defs/>
	<path id="Vector" d="M30.21 1.6L24.36 1.6L17.15 -0.67C16.71 -0.81 16.25 -0.85 15.8 -0.8C15.35 -0.74 14.92 -0.59 14.53 -0.35L10.19 2.35C10.14 2.38 10.1 2.41 10.07 2.46C10.03 2.5 10.01 2.55 10 2.61C9.99 2.66 9.99 2.71 10 2.77C10.01 2.82 10.03 2.87 10.06 2.91C10.09 2.96 10.13 3 10.17 3.03C10.22 3.06 10.27 3.08 10.33 3.09C10.38 3.1 10.43 3.11 10.49 3.1C10.54 3.09 10.6 3.07 10.64 3.04L14.99 0.34C15.27 0.17 15.58 0.06 15.91 0.02C16.24 -0.02 16.57 0.01 16.88 0.11L24.16 2.4C24.21 2.41 24.25 2.42 24.3 2.42L29.79 2.42L29.79 9.31L26.63 9.31C26.56 9.31 26.48 9.33 26.41 9.37C26.35 9.41 26.29 9.46 26.26 9.53C25.78 10.3 25.06 10.91 24.19 11.25L24.19 9.41C24.87 9.13 25.6 8.64 26.06 7.79C26.08 7.74 26.1 7.69 26.11 7.64C26.11 7.58 26.11 7.53 26.09 7.48C26.07 7.42 26.05 7.38 26.01 7.33C25.98 7.29 25.93 7.26 25.88 7.23C25.83 7.21 25.78 7.19 25.72 7.19C25.67 7.18 25.61 7.19 25.56 7.2C25.5 7.22 25.46 7.25 25.41 7.28C25.37 7.32 25.33 7.36 25.31 7.41C24.5 8.9 22.5 8.96 22.48 8.96C19.8 8.96 19.02 7.15 18.99 7.08C18.96 7 18.91 6.93 18.83 6.88C18.76 6.84 18.68 6.81 18.59 6.81L14.61 6.81C14.45 6.82 14.3 6.79 14.16 6.74C14.02 6.68 13.89 6.6 13.79 6.5C13.68 6.4 13.59 6.28 13.53 6.14C13.47 6.01 13.44 5.86 13.44 5.72C13.44 5.57 13.47 5.43 13.53 5.29C13.59 5.16 13.68 5.04 13.79 4.93C13.89 4.83 14.02 4.75 14.16 4.7C14.3 4.64 14.45 4.62 14.61 4.62L19.37 4.62C19.42 4.62 19.48 4.62 19.53 4.6C19.59 4.58 19.64 4.55 19.68 4.51C19.72 4.47 19.75 4.42 19.77 4.37C19.8 4.32 19.81 4.27 19.81 4.21C19.81 4.16 19.8 4.1 19.77 4.05C19.75 4 19.72 3.95 19.68 3.92C19.64 3.88 19.59 3.85 19.53 3.83C19.48 3.81 19.42 3.8 19.37 3.8L14.61 3.8C14.34 3.8 14.08 3.84 13.83 3.94C13.59 4.03 13.37 4.17 13.18 4.35C12.99 4.53 12.84 4.74 12.74 4.98C12.64 5.21 12.58 5.46 12.58 5.72C12.58 5.97 12.64 6.22 12.74 6.46C12.84 6.69 12.99 6.91 13.18 7.08C13.37 7.26 13.59 7.4 13.83 7.5C14.08 7.59 14.34 7.64 14.61 7.63L18.33 7.63C18.68 8.26 19.82 9.78 22.49 9.78C22.78 9.77 23.06 9.73 23.34 9.67L23.34 15.75C23.34 15.91 23.27 16.06 23.16 16.17C23.04 16.29 22.88 16.35 22.71 16.35L0.81 16.35C0.64 16.35 0.48 16.29 0.37 16.17C0.25 16.06 0.18 15.91 0.18 15.75L0.18 5.23C0.18 5.07 0.25 4.91 0.36 4.8C0.48 4.69 0.64 4.62 0.81 4.62L11.63 4.62C11.69 4.62 11.75 4.62 11.8 4.6C11.85 4.58 11.9 4.55 11.94 4.51C11.99 4.47 12.02 4.42 12.04 4.37C12.06 4.32 12.08 4.27 12.08 4.21C12.08 4.16 12.06 4.1 12.04 4.05C12.02 4 11.99 3.95 11.94 3.92C11.9 3.88 11.85 3.85 11.8 3.83C11.75 3.81 11.69 3.8 11.63 3.8L0.81 3.8C0.42 3.8 0.04 3.95 -0.23 4.22C-0.51 4.49 -0.67 4.85 -0.67 5.23L-0.67 15.75C-0.67 16.12 -0.51 16.49 -0.23 16.75C0.04 17.02 0.42 17.17 0.81 17.17L22.71 17.17C23.1 17.17 23.48 17.02 23.76 16.75C24.03 16.49 24.19 16.12 24.19 15.75L24.19 12.12C25.71 11.65 26.56 10.59 26.87 10.13L30.21 10.13C30.33 10.13 30.43 10.08 30.51 10.01C30.59 9.93 30.64 9.83 30.64 9.72L30.64 2.01C30.64 1.9 30.59 1.8 30.51 1.72C30.44 1.64 30.33 1.6 30.21 1.6Z" fill="#000000" fill-opacity="1.000000" fill-rule="nonzero"/>
	<path id="Vector" d="M2.21 12.65L2.21 8.32C2.66 8.24 3.07 8.03 3.39 7.72C3.71 7.41 3.93 7.01 4.01 6.58L11.26 6.58C11.37 6.58 11.48 6.53 11.55 6.46C11.63 6.38 11.67 6.28 11.67 6.17C11.67 6.07 11.63 5.96 11.55 5.89C11.48 5.81 11.37 5.77 11.26 5.76L3.63 5.76C3.52 5.76 3.41 5.8 3.33 5.88C3.25 5.96 3.21 6.06 3.21 6.17C3.21 6.35 3.17 6.53 3.1 6.7C3.03 6.86 2.92 7.02 2.79 7.14C2.66 7.27 2.5 7.37 2.33 7.44C2.16 7.51 1.97 7.55 1.79 7.55C1.67 7.55 1.57 7.59 1.49 7.67C1.41 7.74 1.36 7.85 1.36 7.95L1.36 13.02C1.36 13.07 1.38 13.13 1.4 13.18C1.42 13.22 1.45 13.27 1.49 13.31C1.53 13.35 1.58 13.38 1.63 13.4C1.68 13.42 1.73 13.43 1.79 13.43C2.16 13.43 2.53 13.57 2.79 13.83C3.06 14.09 3.21 14.44 3.21 14.8C3.21 14.85 3.22 14.91 3.24 14.96C3.26 15.01 3.29 15.05 3.33 15.09C3.37 15.13 3.42 15.16 3.47 15.18C3.52 15.2 3.58 15.21 3.63 15.21L19.89 15.21C19.95 15.21 20 15.2 20.05 15.18C20.1 15.16 20.15 15.13 20.19 15.09C20.23 15.05 20.26 15.01 20.28 14.96C20.3 14.91 20.32 14.85 20.32 14.8C20.32 14.44 20.46 14.09 20.73 13.83C21 13.57 21.36 13.43 21.73 13.43C21.79 13.43 21.84 13.42 21.9 13.4C21.95 13.38 22 13.35 22.03 13.31C22.07 13.27 22.1 13.22 22.13 13.18C22.15 13.13 22.16 13.07 22.16 13.02L22.16 11.16C22.16 11.11 22.15 11.05 22.13 11C22.11 10.95 22.08 10.9 22.04 10.86C22 10.82 21.95 10.79 21.9 10.77C21.85 10.75 21.79 10.74 21.73 10.74C21.68 10.74 21.62 10.75 21.57 10.77C21.51 10.79 21.47 10.82 21.43 10.86C21.39 10.9 21.36 10.95 21.34 11C21.32 11.05 21.31 11.11 21.31 11.16L21.31 12.65C20.86 12.73 20.45 12.94 20.13 13.25C19.81 13.56 19.59 13.96 19.5 14.39L4.01 14.39C3.93 13.96 3.71 13.56 3.39 13.25C3.07 12.94 2.66 12.73 2.21 12.65Z" fill="#FBD846" fill-opacity="1.000000" fill-rule="nonzero"/>
	<path id="Vector" d="M11.2 9.14L12.22 9.14C12.33 9.13 12.44 9.09 12.51 9.01C12.59 8.94 12.63 8.83 12.63 8.73C12.63 8.62 12.59 8.52 12.51 8.44C12.44 8.37 12.33 8.32 12.22 8.32L11.89 8.32L11.89 8.05C11.89 8 11.88 7.94 11.86 7.89C11.84 7.84 11.81 7.79 11.77 7.75C11.73 7.71 11.68 7.68 11.63 7.66C11.58 7.64 11.52 7.63 11.46 7.63C11.41 7.63 11.35 7.64 11.3 7.66C11.25 7.68 11.2 7.71 11.16 7.75C11.12 7.79 11.09 7.84 11.07 7.89C11.05 7.94 11.04 8 11.04 8.05L11.04 8.33C10.69 8.35 10.37 8.51 10.14 8.77C9.91 9.02 9.79 9.35 9.81 9.69C9.83 10.03 9.99 10.34 10.25 10.57C10.51 10.79 10.85 10.91 11.2 10.9L11.73 10.9C11.86 10.9 11.98 10.95 12.07 11.04C12.16 11.12 12.21 11.24 12.21 11.37C12.21 11.49 12.16 11.61 12.07 11.7C11.98 11.79 11.86 11.84 11.73 11.84L10.71 11.84C10.65 11.84 10.59 11.84 10.54 11.86C10.49 11.88 10.44 11.91 10.4 11.95C10.35 11.99 10.32 12.04 10.3 12.09C10.28 12.14 10.26 12.19 10.26 12.25C10.26 12.3 10.28 12.36 10.3 12.41C10.32 12.46 10.35 12.51 10.4 12.54C10.44 12.58 10.49 12.61 10.54 12.63C10.59 12.65 10.65 12.66 10.71 12.66L11.04 12.66L11.04 12.92C11.04 13.03 11.09 13.13 11.17 13.2C11.25 13.27 11.35 13.32 11.46 13.32C11.57 13.32 11.68 13.27 11.76 13.2C11.84 13.13 11.88 13.03 11.89 12.92L11.89 12.65C12.24 12.62 12.56 12.46 12.79 12.21C13.02 11.95 13.14 11.62 13.12 11.28C13.1 10.95 12.94 10.63 12.68 10.41C12.42 10.18 12.08 10.06 11.73 10.08L11.2 10.08C11.14 10.08 11.07 10.07 11.01 10.05C10.95 10.02 10.89 9.99 10.84 9.95C10.8 9.9 10.76 9.85 10.74 9.79C10.71 9.73 10.7 9.67 10.7 9.61C10.7 9.54 10.71 9.48 10.74 9.42C10.76 9.37 10.8 9.31 10.84 9.27C10.89 9.23 10.95 9.19 11.01 9.17C11.07 9.15 11.14 9.14 11.2 9.14Z" fill="#FBD846" fill-opacity="1.000000" fill-rule="nonzero"/>
	<path id="Vector" d="M6.79 10.2C6.71 10.27 6.66 10.38 6.66 10.48C6.66 10.51 6.66 10.54 6.67 10.56C6.67 10.59 6.68 10.62 6.69 10.64C6.7 10.67 6.72 10.69 6.73 10.71C6.75 10.73 6.77 10.75 6.79 10.77C6.81 10.79 6.83 10.81 6.85 10.83C6.87 10.84 6.9 10.85 6.92 10.86C6.95 10.87 6.98 10.88 7 10.89C7.03 10.89 7.06 10.89 7.09 10.89C7.2 10.89 7.31 10.85 7.39 10.77C7.41 10.75 7.42 10.73 7.44 10.71C7.45 10.69 7.47 10.66 7.48 10.64C7.49 10.62 7.5 10.59 7.5 10.56C7.51 10.54 7.51 10.51 7.51 10.48C7.51 10.4 7.49 10.32 7.44 10.26C7.39 10.19 7.33 10.14 7.25 10.11C7.17 10.08 7.08 10.07 7 10.08C6.92 10.1 6.84 10.14 6.79 10.2L6.79 10.2Z" fill="#FBD846" fill-opacity="1.000000" fill-rule="nonzero"/>
	<path id="Vector" d="M16.08 10.71C16.1 10.74 16.12 10.76 16.14 10.78C16.18 10.82 16.23 10.85 16.29 10.87C16.35 10.89 16.41 10.9 16.48 10.9C16.54 10.89 16.6 10.87 16.65 10.84C16.71 10.81 16.75 10.77 16.79 10.71C16.8 10.69 16.82 10.67 16.83 10.64C16.84 10.62 16.85 10.59 16.85 10.57C16.86 10.54 16.86 10.51 16.86 10.49C16.86 10.43 16.85 10.38 16.83 10.33C16.81 10.27 16.78 10.23 16.74 10.19C16.7 10.15 16.66 10.12 16.6 10.09C16.55 10.07 16.49 10.06 16.44 10.06C16.38 10.06 16.32 10.07 16.27 10.09C16.22 10.12 16.17 10.15 16.13 10.19C16.09 10.23 16.06 10.27 16.04 10.33C16.02 10.38 16.01 10.43 16.01 10.49C16.01 10.51 16.01 10.54 16.02 10.57C16.02 10.59 16.03 10.62 16.04 10.64C16.05 10.67 16.07 10.69 16.08 10.71Z" fill="#FBD846" fill-opacity="1.000000" fill-rule="nonzero"/>
	<path id="Vector" d="M26.79 16.93C26.4 16.63 25.9 16.48 25.4 16.52C24.89 16.55 24.42 16.77 24.08 17.13L21.39 19.93C21.35 19.97 21.32 20.02 21.3 20.07C21.28 20.12 21.27 20.18 21.27 20.23C21.27 20.29 21.28 20.34 21.31 20.39C21.33 20.44 21.36 20.49 21.41 20.52C21.45 20.56 21.5 20.59 21.55 20.61C21.6 20.63 21.66 20.64 21.72 20.63C21.78 20.63 21.83 20.62 21.88 20.59C21.93 20.57 21.98 20.53 22.02 20.49L24.7 17.69C24.9 17.48 25.17 17.36 25.46 17.33C25.75 17.31 26.04 17.4 26.26 17.57C26.39 17.66 26.49 17.78 26.56 17.9C26.63 18.03 26.68 18.18 26.69 18.32C26.71 18.47 26.7 18.62 26.65 18.76C26.61 18.9 26.54 19.03 26.44 19.15L21.77 24.67C21.43 25.07 20.94 25.33 20.41 25.41L11.36 26.67C10.91 26.74 10.47 26.91 10.08 27.16C9.7 27.41 9.39 27.75 9.16 28.14L8.91 28.57L0.59 28.57L4.9 22.42C5.52 21.53 6.38 20.82 7.38 20.37C8.38 19.92 9.5 19.75 10.59 19.86C11.32 19.93 12.04 20.09 12.74 20.32C13.21 20.48 13.7 20.57 14.2 20.57L18.53 20.57C18.86 20.57 19.18 20.7 19.41 20.92C19.65 21.15 19.78 21.46 19.78 21.78C19.78 22.12 19.64 22.45 19.39 22.7C19.13 22.94 18.79 23.08 18.43 23.08L14.47 23.08C13.82 23.08 13.19 23.3 12.69 23.7L11.76 24.45C11.68 24.52 11.62 24.62 11.62 24.72C11.61 24.83 11.64 24.93 11.71 25.02C11.78 25.1 11.88 25.15 12 25.16C12.1 25.17 12.22 25.14 12.3 25.08L13.23 24.33C13.58 24.05 14.01 23.9 14.46 23.9L18.43 23.9C19.01 23.9 19.57 23.68 19.98 23.28C20.4 22.88 20.63 22.34 20.63 21.78C20.63 21.24 20.41 20.72 20.01 20.34C19.62 19.96 19.08 19.75 18.53 19.75L14.2 19.75C13.8 19.75 13.4 19.68 13.02 19.55C12.26 19.29 11.48 19.13 10.69 19.05C9.43 18.91 8.17 19.11 7.02 19.63C5.88 20.14 4.9 20.95 4.2 21.96L-0.56 28.75C-0.6 28.81 -0.63 28.88 -0.64 28.96C-0.64 29.03 -0.62 29.11 -0.59 29.17C-0.55 29.24 -0.5 29.3 -0.43 29.34C-0.36 29.37 -0.29 29.39 -0.21 29.39L9.16 29.39C9.24 29.39 9.31 29.37 9.38 29.34C9.44 29.3 9.5 29.24 9.53 29.18L9.91 28.54C10.07 28.25 10.29 28.01 10.57 27.83C10.84 27.65 11.16 27.53 11.49 27.48L20.54 26.22C21.28 26.12 21.95 25.75 22.43 25.19L27.1 19.67C27.27 19.47 27.4 19.24 27.47 18.99C27.55 18.75 27.57 18.49 27.54 18.23C27.51 17.98 27.43 17.73 27.31 17.51C27.18 17.28 27 17.09 26.8 16.93L26.79 16.93Z" fill="#000000" fill-opacity="1.000000" fill-rule="nonzero"/>
</svg>
