<svg width="23.000000" height="23.000000" viewBox="0 0 23 23" fill="none" xmlns="http://www.w3.org/2000/svg" xmlns:xlink="http://www.w3.org/1999/xlink">
	<desc>
			Created with Pixso.
	</desc>
	<defs/>
	<path id="Vector" d="M9.65 19.25L12.72 16.17L17.8 19.72L16.66 20.86C15.91 21.62 14.79 21.9 13.76 21.59C10.62 20.65 7.79 18.93 5.29 16.42C2.78 13.92 1.06 11.09 0.12 7.95C-0.19 6.92 0.09 5.8 0.85 5.04L1.99 3.9L5.53 8.99L2.46 12.06M9.39 7.69C11.88 7.41 14.02 9.45 13.84 11.95L13.8 12.53M9.39 4.19C13.89 3.69 17.75 7.39 17.43 11.91L17.36 12.95M9.39 0.1C16.22 -0.66 22.07 4.95 21.59 11.8L21.48 13.39" stroke="#99CB38" stroke-opacity="1.000000" stroke-width="1.000000"/>
</svg>
