<svg width="31.000000" height="31.000000" viewBox="0 0 31 31" fill="none" xmlns="http://www.w3.org/2000/svg" xmlns:xlink="http://www.w3.org/1999/xlink">
	<desc>
			Created with Pixso.
	</desc>
	<defs/>
	<path id="Vector" d="M30.92 30.37L-0.92 30.37L-0.92 -0.38L30.92 30.37ZM3.03 26.07L0.07 26.07L0.07 29.42L28.53 29.42L0.07 1.92L0.07 9.84L3.03 9.84L3.03 10.8L0.07 10.8L0.07 13.66L2.05 13.66L2.05 14.62L0.07 14.62L0.07 17.48L3.03 17.48L3.03 18.44L0.07 18.44L0.07 21.3L2.05 21.3L2.05 22.25L0.07 22.25L0.07 25.12L3.03 25.12L3.03 26.07ZM5.51 26.07L5.51 12.99L19.06 26.07L5.51 26.07ZM16.67 25.12L6.5 15.29L6.5 25.12L16.67 25.12Z" fill="#333333" fill-opacity="1.000000" fill-rule="evenodd"/>
	<path id="Vector" d="M30.9 21.96L29.68 17.24L11.44 -0.38L7.77 3.16L26.01 20.78L30.9 21.96ZM29.54 20.64L26.52 19.91L12.14 6.02L14.4 3.83L28.79 17.72L29.54 20.64ZM11.44 0.97L13.71 3.16L11.44 5.35L9.17 3.16L11.44 0.97Z" fill="#FBD846" fill-opacity="1.000000" fill-rule="nonzero"/>
</svg>
