<svg width="31.000000" height="31.000000" viewBox="0 0 31 31" fill="none" xmlns="http://www.w3.org/2000/svg" xmlns:xlink="http://www.w3.org/1999/xlink">
	<desc>
			Created with Pixso.
	</desc>
	<defs/>
	<path id="Vector" d="M17.12 15.19C17.12 14.24 16.44 13.44 15.53 13.21L15.53 8.01C15.53 7.73 15.29 7.5 15 7.5C14.71 7.5 14.47 7.73 14.47 8.01L14.47 13.21C13.73 13.4 13.15 13.96 12.95 14.68L9.16 14.68C8.87 14.68 8.63 14.91 8.63 15.19C8.63 15.47 8.87 15.7 9.16 15.7L12.95 15.7C13.19 16.58 14.01 17.24 15 17.24C16.17 17.24 17.12 16.32 17.12 15.19ZM15 16.21C14.41 16.21 13.94 15.75 13.94 15.19C13.94 14.62 14.41 14.16 15 14.16C15.58 14.16 16.06 14.62 16.06 15.19C16.06 15.75 15.58 16.21 15 16.21Z" fill="#000000" fill-opacity="1.000000" fill-rule="nonzero"/>
	<path id="Vector" d="M15 4.94C15.29 4.94 15.53 4.71 15.53 4.43L15.53 3.91C15.53 3.63 15.29 3.4 15 3.4C14.71 3.4 14.47 3.63 14.47 3.91L14.47 4.43C14.47 4.71 14.71 4.94 15 4.94Z" fill="#000000" fill-opacity="1.000000" fill-rule="nonzero"/>
	<path id="Vector" d="M14.47 25.95L14.47 26.46C14.47 26.75 14.71 26.98 15 26.98C15.29 26.98 15.53 26.75 15.53 26.46L15.53 25.95C15.53 25.67 15.29 25.44 15 25.44C14.71 25.44 14.47 25.67 14.47 25.95Z" fill="#000000" fill-opacity="1.000000" fill-rule="nonzero"/>
	<path id="Vector" d="M26.67 15.7C26.96 15.7 27.2 15.47 27.2 15.19C27.2 14.91 26.96 14.68 26.67 14.68L26.14 14.68C25.85 14.68 25.61 14.91 25.61 15.19C25.61 15.47 25.85 15.7 26.14 15.7L26.67 15.7Z" fill="#000000" fill-opacity="1.000000" fill-rule="nonzero"/>
	<path id="Vector" d="M3.33 14.68C3.03 14.68 2.8 14.91 2.8 15.19C2.8 15.47 3.03 15.7 3.33 15.7L3.86 15.7C4.15 15.7 4.39 15.47 4.39 15.19C4.39 14.91 4.15 14.68 3.86 14.68L3.33 14.68Z" fill="#000000" fill-opacity="1.000000" fill-rule="nonzero"/>
	<path id="Vector" d="M22.88 8.09C23.01 8.09 23.15 8.04 23.25 7.94L23.63 7.58C23.83 7.38 23.83 7.05 23.63 6.85C23.42 6.65 23.08 6.65 22.88 6.85L22.5 7.22C22.29 7.42 22.29 7.74 22.5 7.94C22.61 8.04 22.74 8.09 22.88 8.09Z" fill="#FBD846" fill-opacity="1.000000" fill-rule="nonzero"/>
	<path id="Vector" d="M6.75 22.44L6.37 22.8C6.16 23 6.16 23.32 6.37 23.52C6.47 23.62 6.61 23.67 6.75 23.67C6.88 23.67 7.02 23.62 7.12 23.52L7.5 23.16C7.7 22.96 7.7 22.64 7.5 22.44C7.29 22.24 6.95 22.24 6.75 22.44Z" fill="#FBD846" fill-opacity="1.000000" fill-rule="nonzero"/>
	<path id="Vector" d="M7.5 7.22L7.12 6.85C6.91 6.65 6.58 6.65 6.37 6.85C6.16 7.05 6.16 7.38 6.37 7.58L6.75 7.94C6.85 8.04 6.98 8.09 7.12 8.09C7.25 8.09 7.39 8.04 7.5 7.94C7.7 7.74 7.7 7.42 7.5 7.22Z" fill="#FBD846" fill-opacity="1.000000" fill-rule="nonzero"/>
	<path id="Vector" d="M15 -0.12C6.22 -0.12 -0.92 6.77 -0.92 15.25C-0.92 23.73 6.22 30.63 15 30.63C16.9 30.63 18.75 30.31 20.52 29.67C20.8 29.58 20.94 29.28 20.84 29.02C20.74 28.75 20.43 28.61 20.16 28.71C18.5 29.3 16.77 29.6 15 29.6C6.81 29.6 0.14 23.16 0.14 15.25C0.14 7.34 6.81 0.9 15 0.9C23.19 0.9 29.86 7.34 29.86 15.25C29.86 16.96 29.55 18.64 28.94 20.23C28.83 20.5 28.97 20.79 29.25 20.89C29.52 20.99 29.83 20.85 29.93 20.59C30.59 18.88 30.92 17.08 30.92 15.25C30.92 6.77 23.78 -0.12 15 -0.12Z" fill="#000000" fill-opacity="1.000000" fill-rule="nonzero"/>
	<path id="Vector" d="M25.61 20.94L25.61 20.38C25.61 20.09 25.37 19.86 25.08 19.86C24.79 19.86 24.55 20.09 24.55 20.38L24.55 20.94C23.97 21.06 23.44 21.35 23.06 21.8C22.73 22.17 22.58 22.64 22.63 23.13C22.69 23.63 22.96 24.1 23.37 24.41L24.55 25.3L24.55 28.08C23.93 27.87 23.49 27.31 23.49 26.64C23.49 26.36 23.25 26.13 22.96 26.13C22.67 26.13 22.43 26.36 22.43 26.64C22.43 27.88 23.34 28.91 24.55 29.15L24.55 29.6C24.55 29.89 24.79 30.11 25.08 30.11C25.37 30.11 25.61 29.89 25.61 29.6L25.61 29.15C26.19 29.04 26.72 28.74 27.11 28.29C27.43 27.92 27.58 27.45 27.53 26.96C27.47 26.46 27.21 25.99 26.8 25.68L25.61 24.8L25.61 22.01C26.23 22.22 26.67 22.78 26.67 23.45C26.67 23.74 26.91 23.96 27.2 23.96C27.5 23.96 27.74 23.74 27.74 23.45C27.74 22.21 26.82 21.18 25.61 20.94ZM26.14 26.49C26.33 26.63 26.45 26.84 26.47 27.07C26.5 27.28 26.43 27.48 26.3 27.63C26.11 27.84 25.87 27.99 25.61 28.08L25.61 26.09L26.14 26.49ZM24.02 23.6C23.83 23.46 23.71 23.25 23.69 23.03C23.67 22.82 23.73 22.62 23.87 22.46C24.05 22.25 24.29 22.1 24.55 22.01L24.55 24L24.02 23.6Z" fill="#FBD846" fill-opacity="1.000000" fill-rule="nonzero"/>
</svg>
