<svg width="22.000000" height="12.000000" viewBox="0 0 22 12" fill="none" xmlns="http://www.w3.org/2000/svg" xmlns:xlink="http://www.w3.org/1999/xlink">
	<desc>
			Created with Pixso.
	</desc>
	<defs/>
	<path id="Vector" d="M21.02 10.33C20.99 10.28 20.97 10.23 20.95 10.19C20.58 9.53 19.88 8.72 18.85 7.76L18.82 7.74L18.81 7.73L18.8 7.72L18.79 7.72C18.32 7.27 18.02 6.97 17.9 6.82C17.67 6.52 17.62 6.22 17.75 5.92C17.83 5.7 18.16 5.22 18.74 4.48C19.04 4.09 19.27 3.78 19.45 3.55C20.72 1.86 21.27 0.78 21.1 0.31L21.04 0.2C20.99 0.14 20.88 0.08 20.69 0.02C20.51 -0.03 20.28 -0.04 19.99 -0.01L16.82 0.01C16.77 0 16.7 0 16.6 0.02C16.5 0.04 16.46 0.05 16.46 0.05L16.4 0.08L16.36 0.11C16.32 0.14 16.28 0.17 16.24 0.23C16.19 0.28 16.16 0.35 16.13 0.42C15.78 1.31 15.39 2.14 14.95 2.9C14.68 3.35 14.43 3.75 14.2 4.08C13.98 4.41 13.78 4.66 13.63 4.82C13.48 4.98 13.34 5.1 13.21 5.2C13.09 5.29 12.99 5.33 12.93 5.32C12.86 5.3 12.8 5.29 12.74 5.27C12.64 5.21 12.55 5.12 12.49 5C12.43 4.89 12.39 4.75 12.36 4.58C12.34 4.4 12.33 4.25 12.33 4.13C12.32 4 12.32 3.83 12.33 3.6C12.34 3.37 12.34 3.22 12.34 3.14C12.34 2.86 12.35 2.56 12.36 2.23C12.37 1.91 12.38 1.65 12.39 1.46C12.39 1.26 12.4 1.06 12.4 0.85C12.4 0.64 12.38 0.47 12.36 0.35C12.33 0.23 12.29 0.11 12.24 0C12.19 -0.12 12.12 -0.2 12.02 -0.27C11.92 -0.33 11.8 -0.38 11.65 -0.42C11.26 -0.5 10.76 -0.55 10.16 -0.56C8.8 -0.57 7.92 -0.49 7.53 -0.29C7.38 -0.21 7.24 -0.1 7.12 0.04C6.98 0.2 6.97 0.29 7.06 0.3C7.5 0.37 7.81 0.52 8 0.77L8.06 0.91C8.11 1 8.16 1.17 8.22 1.41C8.27 1.65 8.3 1.92 8.32 2.22C8.35 2.75 8.35 3.21 8.32 3.59C8.28 3.97 8.24 4.27 8.21 4.48C8.18 4.69 8.13 4.87 8.06 5C8 5.13 7.95 5.21 7.93 5.24C7.91 5.27 7.89 5.29 7.87 5.3C7.78 5.33 7.68 5.35 7.58 5.35C7.48 5.35 7.35 5.3 7.2 5.2C7.06 5.09 6.91 4.95 6.75 4.77C6.59 4.59 6.41 4.34 6.21 4.02C6.01 3.7 5.81 3.32 5.6 2.88L5.42 2.56C5.31 2.35 5.16 2.05 4.97 1.66C4.78 1.27 4.61 0.89 4.46 0.52C4.41 0.37 4.32 0.25 4.2 0.17L4.14 0.14C4.11 0.11 4.05 0.08 3.97 0.04C3.89 0.01 3.8 -0.01 3.72 -0.03L0.7 -0.01C0.39 -0.01 0.18 0.06 0.07 0.2L0.03 0.27C0.01 0.3 0 0.36 0 0.44C0 0.52 0.02 0.62 0.06 0.74C0.5 1.77 0.98 2.77 1.5 3.73C2.01 4.69 2.46 5.47 2.84 6.06C3.23 6.64 3.62 7.2 4.01 7.72C4.41 8.24 4.67 8.57 4.8 8.72C4.93 8.87 5.03 8.98 5.1 9.05L5.38 9.31C5.55 9.49 5.81 9.7 6.15 9.95C6.49 10.19 6.87 10.43 7.29 10.67C7.7 10.91 8.18 11.1 8.73 11.25C9.28 11.41 9.82 11.47 10.34 11.44L11.6 11.44C11.86 11.41 12.06 11.33 12.19 11.19L12.23 11.14C12.26 11.1 12.29 11.03 12.32 10.94C12.34 10.84 12.35 10.74 12.35 10.63C12.35 10.32 12.37 10.03 12.42 9.78C12.48 9.53 12.54 9.34 12.61 9.21C12.68 9.08 12.76 8.97 12.85 8.88C12.94 8.8 13 8.74 13.04 8.72C13.07 8.71 13.1 8.69 13.12 8.69C13.3 8.63 13.51 8.68 13.75 8.86C13.98 9.03 14.21 9.24 14.42 9.5C14.63 9.75 14.88 10.03 15.17 10.35C15.46 10.66 15.72 10.9 15.94 11.05L16.16 11.18C16.31 11.27 16.5 11.35 16.73 11.43C16.97 11.5 17.17 11.52 17.35 11.48L20.17 11.44C20.45 11.44 20.66 11.39 20.82 11.3C20.97 11.21 21.06 11.11 21.09 11C21.12 10.89 21.12 10.76 21.1 10.62C21.07 10.48 21.05 10.39 21.02 10.33Z" fill="#99CB38" fill-opacity="1.000000" fill-rule="nonzero"/>
</svg>
